<svg xmlns="http://www.w3.org/2000/svg" xmlns:v="https://vecta.io/nano" viewBox="0 0 300 250"><style><![CDATA[.B{fill:#f68992}.C{fill:#df6574}.D{fill:#29242c}.E{fill:#fff}.F{fill:#e06e75}.G{fill:#a9c4d0}.H{fill:#d2e1e7}.I{fill:#1f1b20}.J{fill:#e97d83}.K{fill:#d9e3e8}]]></style><defs><linearGradient id="A" x1=".439" x2=".448" y1="0" y2="0" gradientTransform="scale(1822.85 -1822.85)rotate(90 .826 -.145)" href="#U"><stop offset="0" stop-color="#8ed8f0"/></linearGradient><linearGradient id="B" x1=".439" x2=".448" y1="0" y2="0" gradientTransform="scale(1822.85 -1822.85)rotate(90 .83 -.141)" href="#U"><stop offset="0" stop-color="#8ed8f0"/></linearGradient><linearGradient id="C" x1=".421" x2=".43" y1="0" y2="0" gradientTransform="scale(1822.85 -1822.85)rotate(90 .83 -.141)" href="#U"><stop offset="0" stop-color="#8cd7f0"/><stop offset=".5" stop-color="#8cd7f0"/><stop offset="1" stop-color="#8dd8f0"/></linearGradient><linearGradient id="D" x1=".439" x2=".448" y1="0" y2="0" gradientTransform="scale(1822.85 -1822.85)rotate(90 .834 -.138)" href="#U"><stop offset="0" stop-color="#8ed8f0"/></linearGradient><linearGradient id="E" x1=".377" x2=".387" y1="0" y2="0" gradientTransform="scale(1822.86 -1822.86)rotate(90 .826 -.145)" href="#U"><stop offset="0" stop-color="#8ad6ef"/><stop offset=".5" stop-color="#8ad7f0"/></linearGradient><linearGradient id="F" x1=".377" x2=".387" y1="0" y2="0" gradientTransform="scale(1822.86 -1822.86)rotate(90 .83 -.141)" href="#U"><stop offset="0" stop-color="#8ad6ef"/><stop offset=".5" stop-color="#8ad7f0"/></linearGradient><linearGradient id="G" x1=".363" x2=".373" y1="0" y2="0" gradientTransform="scale(1822.86 -1822.86)rotate(90 .83 -.141)" href="#U"><stop offset="0" stop-color="#89d6ef"/></linearGradient><linearGradient id="H" x1=".377" x2=".387" y1="0" y2="0" gradientTransform="scale(1822.86 -1822.86)rotate(90 .834 -.138)" href="#U"><stop offset="0" stop-color="#8ad6ef"/><stop offset=".5" stop-color="#8ad7f0"/></linearGradient><linearGradient id="I" x1=".421" x2=".43" y1="0" y2="0" gradientTransform="scale(1822.85 -1822.85)rotate(90 .826 -.145)" href="#U"><stop offset="0" stop-color="#8cd7f0"/><stop offset=".5" stop-color="#8cd7f0"/><stop offset="1" stop-color="#8dd8f0"/></linearGradient><linearGradient id="J" x1=".401" x2=".41" y1="0" y2="0" gradientTransform="scale(1822.83 -1822.83)rotate(90 .838 -.133)" href="#U"><stop offset="0" stop-color="#8bd7f0"/></linearGradient><clipPath id="K"><path d="M1238.121 952.809h7.48v17.203h-7.48Zm0 0"/></clipPath><clipPath id="L"><path d="M1251.54 952.809h7.472v17.203h-7.473Zm0 0"/></clipPath><clipPath id="M"><path d="M1251.54 986.207h7.472v17.215h-7.473Zm0 0"/></clipPath><clipPath id="N"><path d="M1264.96 952.809h7.481v17.203h-7.48Zm0 0"/></clipPath><clipPath id="O"><path d="M1238.121 1065.441h7.48v17.188h-7.48Zm0 0"/></clipPath><clipPath id="P"><path d="M1251.54 1065.441h7.472v17.188h-7.473Zm0 0"/></clipPath><clipPath id="Q"><path d="M1251.54 1090.988h7.472v17.192h-7.473Zm0 0"/></clipPath><clipPath id="R"><path d="M1264.96 1065.441h7.481v17.188h-7.48Zm0 0"/></clipPath><clipPath id="S"><path d="M1238.121 986.207h7.48v17.215h-7.48Zm0 0"/></clipPath><clipPath id="T"><path d="M1281.762 1022.238h7.476v17.192h-7.476Zm0 0"/></clipPath><linearGradient id="U" gradientUnits="userSpaceOnUse"/></defs><path fill="#6aa83e" d="M297.554 196.492c12.901-77.668-50.795-78.833-64.019-81.195-10.453-1.87-19.915-5.463-30.972-5.255-10.686.196-20.573 6.21-31.11 6.266-21.263.114-43.069-3.438-64.283-5.224-21.008-1.772-41.653-3.753-62.596-7.315-10.462-1.778-21.572-5.209-32.177-4.141-3.475.353-13.162 24.234-11.115 41.14 1.904 15.729 26.733 54.204 40.384 56.679 18.26 3.311 33.978 15.052 54.974 18.009"/><path d="M58.34 249.942h20.767c1.142-4.976 2.105-9.492 2.727-13.013 4.27-24.168 4.078-43.23.427-62.87-3.373-18.16-29.285-8.645-31.425 3.883-4.376 25.597 12.123 57.09 12.123 57.09s-3.035 5.843-4.618 14.91" class="B"/><path fill="#5191cc" d="M55.552 249.942h25.45c1.208-6.123 2.225-11.848 2.854-16.483 4.444-32.789-.415-68.202-.415-68.202s-32.005-6.155-34.602 10.82c-4.024 26.333 6.193 43.57 10.166 57.1-1.627 5.345-2.729 11.043-3.453 16.765"/><path d="M42.726 249.942h20.999l1.904-8.036c5.105-24.008 5.576-43.064 2.608-62.818-2.74-18.265-28.968-9.654-31.54 2.792-5.262 25.434 10.136 57.475 10.136 57.475s-2.259 4.014-4.107 10.587" class="B"/><path fill="#689fdb" d="M39.648 249.942h25.831c.929-4.197 1.724-8.1 2.297-11.432 5.576-32.617 1.105-71.648 1.105-71.648s-33.162-8.442-34.358 8.694c-2.003 28.608 4.92 48.152 8.424 61.812-1.379 4.022-2.453 8.265-3.3 12.574"/><g fill="#276b75"><path d="M69.687 107.426c-.677 16.03-1.043 18.576 1.853 21.9 3.357 3.854 14.752.667 14.752.667-.535-2.359-1.05-14.16-3.488-19.977-3.147-7.509-6.223-8.046-6.223-8.046s-6.81 3.436-6.894 5.456"/><path d="M33.27 175.197c-.33 9.915 53.003 8.323 52.49-.908-.644-11.585-4.427-31.492-4.427-31.492s2.411-36.224-4.107-40.72c-5.158-3.556-11.396-3.063-11.396-3.063l-12.373-.008s-9.131 1.533-13.996 5.109c-3.705 2.724-3.615 40.61-3.615 40.61s-2.144 17.596-2.575 30.472"/></g><path d="M69.052 92.726c-1.557 1.046-3.657.804-3.657.804l.57 5.484s1.977 6.924-2.499 6.924c-5.43 0-9.805-6.932-9.805-6.932 1.456-8.738 1.711-15.526 1.711-15.526s-.83-1.818-.537-5.943c.379-5.201 9.458-8.448 9.458-8.448l7.516 2.921s.938 3.165.436 5.71c.697 5.257.16 12.767-3.193 15.006" class="B"/><path d="M65.564 65.551c1.75-.692 7.295-1.826 8.905 2.469 1.336 3.563-2.144 6.115-2.144 6.115s-3.58-1.525-7.62-.751c-5.043.963-2.435 3.705-5.043 4.824-2.192.948-.891 5.307-2.433 5.822-1.416.47-1.871 1.984-2.315.69-.328-.951-8.477-10.324-2.042-14.936.43-5.96 8.564-2.598 12.692-4.233" class="D"/><path d="M59.299 90.263c3.207 2.896 6.096 3.267 6.096 3.267l.286 2.77c-4.053-.62-5.113-2.121-6.382-6.037" class="F"/><path d="M57.229 84.03c1.403-.239-.383 1.772-1.44 1.936-.757.117-1.452-.354-1.742-1.443-.321-1.2-.381-2.903.977-2.976 1.334-.07 1.24 2.647 2.205 2.483" class="B"/><path d="M55.597 84.553l-.338-1.443c-.075-.342-.207-.69-.35-.779-.17-.062-.395.092-.387.075l.072-.12a.43.43 0 0 1 .363-.191c.21.03.375.184.477.356.107.17.173.36.238.552.086.388.107.781.06 1.075-.041.298-.135.475-.135.475" class="C"/><path fill="#276b75" d="M39.708 135.07c4.83 3.649 21.954-4.592 21.748-8.964-.38-8.038-18.561-25.423-22.316-21.776-5.443 5.288-4.15 11.538-2.757 20.336 1.212 7.636 3.223 10.45 3.325 10.403"/><path fill="#135b67" d="M49.498 104.65c3.812 7.23 7.813 20.464 4.03 28.2-.068.141.123.318.232.178 2.53-3.201 1.42-8.884.888-12.549-.735-5.064-1.4-11.941-5.003-15.944zm31.575 34.785c2.284-11.776-.889-27.04-7.572-37.102-.147-.224-.557-.087-.452.189 4.742 12.405 9.482 23.192 7.84 36.889z"/><path d="M67.977 79.497l-.09.93c-.024.301-.001.61.013.909.042.601.174 1.191.344 1.777l-.098-.107c.237.129.478.273.66.497.179.219.301.52.262.814-.075.594-.593.965-1.075 1.075.455-.217.81-.65.818-1.09.01-.456-.42-.752-.831-.956l-.067-.032-.03-.075a5.1 5.1 0 0 1-.359-1.89c-.014-.324.053-.645.118-.962s.196-.604.335-.89" class="C"/><path d="M72.553 80.089c-.097-.007-.333-.351-1.01-.442-.705-.102-1.56.158-1.66.107a.616.616 0 0 1-.042-1.078c.067-.048.782-.098 1.522.047s1.198.485 1.27.585c.218.316.076.789-.08.781m-10.726.07c.116-.005.403-.349 1.222-.44.856-.105 1.893.159 2.012.107.52-.222.56-.822.05-1.08-.082-.045-.946-.097-1.844.05-.898.141-1.453.484-1.537.581-.269.32-.098.792.097.782" class="D"/><path d="M70.433 80.955c0 .433.294.786.662.786.356 0 .657-.353.657-.786s-.301-.794-.657-.794c-.368 0-.662.356-.662.794m-5.453.453c0 .435-.295.786-.662.786-.357 0-.655-.35-.655-.786s.298-.794.655-.794c.367 0 .662.356.662.794" class="I"/><path fill="#135b67" d="M35.383 118.548c.359 3.575.724 7.099 1.386 10.631.328 1.762.955 5.245 3.056 5.825.347.097.652-.37.365-.627-3.866-3.436-3.754-11.081-4.74-15.837z"/><path d="m89.81 142.797-3.968-14.163c-2.498 1.523-3.971 2.038-3.971 2.038s-1.393 10.943 7.94 12.125" class="F"/><path d="M83.939 137.435c-1.227-2.767 1.92-12.774 1.92-12.774s-.987-2.396-.251-4.506c.597-1.705 4.006-3.675 4.006-3.675s1.67-4.087 3.506-4.42c.838-.155 1.253 2.25.666 4.089-.995 3.13-2.207 3.912-2.42 4.589-1.082 3.505 2.973 14.781 2.172 17.697-1.84 6.676-6.927 5.007-9.599-1" class="B"/><path fill="#36434c" d="m78.178 122.24 7.597 2.421 9.432-15.525h-9.6z"/><g class="B"><path d="M52.367 149.231C66.642 148.15 73.431 128.674 77.845 125l-.333-5.566c-5.407 2.225-11.627 5.338-24.284 13.491l-13.52 2.145s1.507 15.014 12.66 14.162"/><path d="M76.91 120.474c.686-3.576 3.896-6.118 4.023-9.751.015-.443 2.515-.73 1.754 1.67-.585 1.836-1.46 4.005-1.46 4.005s.328-2.008 3.003-3.003c.864-.321 3.704 3.21 3.38 4.506-.792 3.19-3.524 5.128-4.102 5.543-2.95 2.115-6.792 2.56-6.792 2.56z"/></g><path d="M72.325 85.72c-.056 3.055-.63 7.27-4.292 7.991-3.514.697-7.871-1.437-9.391-4.612-.903-1.897-2.12-5.23-2.25-7.293 1.332.894 1.974 3.122 2.36 4.503.397 1.418 1.674 1.643 2.92 2.28 1.306.664 2.516 1.134 3.4-.336.818-1.371.693-2.083 2.468-2.352 1.475-.22 3.147-.49 4.354.573z" class="D"/><path d="M66.795 87.491c.538-.697 4.563-1.072 4.24.858-.122.737-.283 1.86-.965 2.573-.878.923-2.391 1.264-3.302.215-.769-.889-.507-2.95.027-3.646" class="B"/><path d="M68.3 89.317c-.298.267-.4.563-.505.941-.121.443-.317.788-.56 1.174-.544.874.866 1.7 1.38.807.424-.745.659-2.056.276-2.847-.11-.228-.421-.223-.59-.075" class="D"/><path d="M70.391 88.188s-.211.067-.532.115-.742.062-1.165.064c-.423-.027-.843-.064-1.16-.136s-.522-.15-.522-.15.214-.067.533-.115c.318-.054.741-.062 1.164-.064.42.027.844.064 1.16.136a3.76 3.76 0 0 1 .522.15" class="C"/><path fill="#2d7db8" d="M82.588 187.366c-1.732 1.289-3.65 2.329-5.54 3.367-1.715.943-4.305 1.455-5.597 2.903-.182.207-.064.548.23.55 1.765.01 3.63-1.577 5.106-2.448 2.114-1.244 3.994-2.715 5.883-4.265z"/><path fill="#52993e" d="M286.117 179.166c13.047.732 3.048 15.08-14.545 17.558-15.98 2.25-25.183-2.95-41.644-3.603-10.18-.403-15.532 2.701-22.735 2.701-3.716 0-48.705-.34-42.769-11.029 3.375-6.078 64.163-3.038 68.793-4.5z"/><path d="M204.803 189.617c-.819.678-3.213-.474-5.525-.77-2.504-.32-3.277.3-5.681-.098-1.52-.251-2.93-1.314-3.394-2.222-.456-.887.65-2.406 1.934-1.224 1.818.31 3.9-1.246 5.273-1.636s3.814-.782 3.814-.782 6.207-.366 5.179 2.085.2 3.157-1.6 4.647" class="J"/><path d="M204.583 183.611c-.053.29-.231.512-.29.79l.1.244.086.051c.144.085.304.046.426-.056.361-.31.42-.795.083-1.136-.119-.122-.37-.075-.405.107m-12.69 2.058c.305.758 1.055 1.91 1.86 2.17l.131-.171c-.19-.358-.531-.6-.819-.882l-1.075-1.173z" class="C"/><path d="M200.826 183.648l5.564 1.492 2.25-5.489c-.045-.266-6.54-2.13-6.844-1.902-.304.234-.97 5.899-.97 5.899" class="E"/><path fill="#a5c3d0" d="M204.286 191.482c-.788.553-2.857-.232-5.847-.473-2.012-.16-4.835.388-6.308-.08-2.767-.886-3.882-3.69-3.628-4.313.195-.486.544-1.344.8-1.47 4.852 2.764 12.55.88 12.55.88l3.638 2.534c-.127 1.023-.276 2.266-1.205 2.922"/><path d="M205.308 189.524c-1.036 1.304-3.618-.371-7.225-.156l-3.986.224c-3.178-.031-5.324-3.692-4.794-4.445.98-1.394 3.61-.455 3.61-.455l7.738-2.039s.226-.948.675-1.34 2.185.545 2.41.908-.357 1.339.47 1.78 1.921.595 2.448.353c.483.369-.442 1.44-.442 1.44-.126 1.019.425 2.063-.904 3.73" class="G"/><path d="m192.914 184.692 1.794 3.004 7.42-2.482-1.477-2.56z" class="H"/><path fill="#27282a" d="M198.025 182.65c5.315 6.689 9.96 3.283 9.96 3.283s16.979-26.42 18.978-22.94c5.969 10.406 18.836 22.035 21.776 22.791 17.052 4.39 11.329-14.667 7.767-19.247-7.09-9.116-21.104-26.504-32.92-26.167-13.675.39-25.574 41.34-25.561 42.28"/><path d="M253.41 142.506c-1.62-1.739-12.297-5.396-12.297-5.396s-.095-1.744-1.157-2.814c-.858-.865-3.503-1.07-3.503-1.07s-2.205-2.005-3.421-1.673c-.554.149-.105 1.734.783 2.68 1.516 1.616 2.482 1.738 2.806 2.09 1.68 1.818 6.435 9.318 10.731 11.135 4.302 1.814 9.129-1.648 6.057-4.952" class="F"/><g class="B"><path d="M226.665 167.07c18.89-4.017 33.884-4.384 49.423-2.05 14.374 2.157 7.6 22.79-2.192 24.816-20.012 4.14-45.224-7.975-45.224-7.975s-5.037 2.845-12.83 4.283c-6.87 1.266-37.215.305-37.215.305l-.318-5.708s34.249-10.673 48.356-13.671"/><path d="M174.873 187.524c-2.621 0-2.646-2.818-5.177-4.652-2.004-1.446-3.76-2.438-4.13-3.023-1.183-1.856-.38-6.428 1.18-6.428.98 0 .95 1.793 2.387 2.42 5.176 2.25 7.547 5.02 9.176 4.9s2.384 5.455.318 5.708-1.896 1.075-3.754 1.075"/></g><path d="m179.018 184.657-.41.361c-.17-.242-.085-.304-.321-.492-.13-.103-.296-.069-.354.092-.15.413.1.932.541 1.05.5.132.72-.489.854-.83.065-.173-.19-.312-.31-.18M167.01 177.874c.157-.366.275-.741.4-1.12.145-.446.389-.85.516-1.3l-.054-.031c-.58.58-.89 1.638-.894 2.441z" class="C"/><path d="M177.479 180.851l.692 5.718 5.933.034c.232-.139-.656-7.149-.983-7.344s-5.642 1.592-5.642 1.592" class="E"/><path d="M172.441 188.617c-1.23-.31-3.008-2.621-5.402-4.783a22.5 22.5 0 0 1-3.46-3.94c-1.8-2.617.521-6.919 1.42-7.119.51-.114 1.905-.322 2.154-.186.533 5.56 7.707 10.905 7.707 10.905l.524 4.643c-.908.484-1.704.787-2.943.48" class="K"/><path d="M173.99 188.334c-1.258-.185-3.012-2.621-5.4-4.782a22.4 22.4 0 0 1-3.464-3.94c-1.8-2.616.944-7.034 1.868-7.034 1.705 0 2.746 2.867 2.746 2.867l6.998 4.584s1.327-.36 1.905-.219.485 2.423.314 2.816-1.197.7-1.085 1.626c.112.932.62 1.917 1.121 2.21-.023.607-1.431.465-1.431.465-.907.483-1.46 1.716-3.572 1.407" class="G"/><path d="m169.74 175.445-.958 3.577 6.602 4.304 1.354-3.297z" class="H"/><path fill="#363437" d="M177.677 178.215c-3.882 5.91.844 10.636.844 10.636s29.88 3.55 51.716-3.933c10.749 2.756 24.579 10.32 45.178 6.437 13.28-2.504 10.297-26.844 10.297-26.844s-30.713-3.518-56.374.874c-16.525 2.826-50.562 12.577-51.661 12.83"/><path fill="#45a0c7" d="M286.55 169.405c.261 7.803-34.433.679-37.135-6.073-4.155-10.393-.844-17.474-.844-17.474s-2.006-26.429 3.124-29.966c4.057-2.802 8.965-2.41 8.965-2.41l9.736-.007s7.184 1.204 11.012 4.02c2.914 2.144 1.855 31.57 1.855 31.57s2.951 10.212 3.287 20.34"/><path d="M258.125 108.535c1.229.819 2.879.631 2.879.631l-.449 4.316s-1.558 5.445 1.966 5.445c4.274 0 7.713-5.452 7.713-5.452-1.142-6.876-1.344-12.218-1.344-12.218s.653-1.43.422-4.677c-.298-4.09-7.442-6.644-7.442-6.644l-5.913 2.296s-.74 2.492-.344 4.494c-.549 4.137-.127 10.046 2.512 11.809" class="B"/><path d="M260.641 87.697c-5.401-.676-6.055 1.236-6.335 3.416-.385 2.97 1.307 5.613 1.307 5.613s-.1-2.129.64-3.162c2.162 4.286 8.007.919 9.792 3.08 1.197 1.45.167 4.644 1.384 5.046 1.115.37 1.473 1.561 1.82.544.258-.748 6.673-8.122 1.608-11.752-.339-4.69-6.75-2.351-10.216-2.785" class="D"/><path d="M265.8 106.596c-2.523 2.278-4.796 2.57-4.796 2.57l-.227 2.18c3.19-.487 4.022-1.67 5.024-4.75" class="F"/><path d="M267.43 101.69c-1.105-.187.3 1.396 1.131 1.524.597.094 1.141-.278 1.372-1.136.252-.941.298-2.284-.77-2.34-1.049-.057-.975 2.082-1.734 1.952" class="B"/><path d="M268.712 102.103s-.068-.14-.105-.376a2.4 2.4 0 0 1 .046-.844c.096-.282.215-.645.561-.714.168 0 .246.102.283.156l.061.088c.01.012-.168-.112-.305-.056-.112.068-.217.34-.273.612-.083.268-.13.554-.186.765a7 7 0 0 0-.082.369" class="C"/><path fill="#45a0c7" d="M273.725 142.396c-5.628-4.84-9.785-4.16-9.622-7.595.298-6.328 14.604-20.007 17.56-17.14 4.28 4.163 2.425 11.921-.848 17.054s-7.007 7.715-7.09 7.681"/><path fill="#2888b0" d="M271.14 118.708c-2.691 2.694-4.22 6.407-6.105 9.648-1.493 2.57-3.904 5.903-4.272 8.937l.217.058c2.999-6.498 6.759-12.34 10.277-18.553zm-22.328 26.558c-1.14-9.573 1.476-18.405 5.007-27.187.085-.208-.249-.337-.357-.15-4.48 7.779-6.51 18.525-4.794 27.357z"/><path d="M258.97 98.126c.227.436.357.948.357 1.455a4 4 0 0 1-.28 1.485l-.025.061-.053.027c-.322.158-.661.392-.654.749.01.344.28.697.643.86-.372-.097-.787-.376-.846-.848-.056-.495.364-.856.727-1.032l-.078.086c.134-.46.236-.925.27-1.397a6.6 6.6 0 0 0-.06-1.446" class="C"/><path d="M255.372 98.589c.075-.005.261-.275.794-.347.554-.08 1.227.125 1.305.083a.483.483 0 0 0 .035-.846c-.055-.039-.615-.078-1.197.038s-.945.38-1 .46c-.174.246-.062.62.063.612m8.439.058c-.09-.007-.317-.277-.96-.35-.673-.081-1.49.126-1.586.084-.407-.175-.44-.642-.04-.845.067-.04.745-.079 1.452.036s1.144.383 1.21.459c.212.25.075.622-.076.616" class="D"/><path d="M261.407 104.136c-1.341 1.943-3.662 1.268-4.297.086z" class="E"/><path fill="#3d4d57" d="m242.824 133.709-2.287 3.457-9.973-7.379-.429-.992 4.543-2.034 7.987 5.911z"/><path fill="#e8f8fe" d="m242.061 132.709-1.872 3.204-9.303-6.984 3.772-1.816z"/><g class="B"><path d="M260.585 140.033c-5.994-3.46-14.15-3.647-17.958-4.335l-1.834 2.66c2.065 2.602 6.961 7.247 19.539 10.539 4.325 1.131 9.71-3.378 9.71-3.378s-5.237-.506-9.457-5.486"/><path d="M241.59 138.22c-2.143 1.194-5.088-.272-5.088-.272s-.81-.624-2.182-1.975c-1.108-1.087-1.032-3.952-.061-4.096.66-.097 2.627 2.16 3.091 2.28 0 0-.748-1.002-1.158-1.841a.674.674 0 0 1 1.077-.792c.583.553 1.327 1.35 2.298 2.413 2.628.466 4.113 2.46 4.113 2.46z"/></g><path d="M257.037 99.272c0 .34-.23.62-.519.62-.28 0-.514-.28-.514-.62s.233-.622.514-.622c.29 0 .52.278.52.622m4.292.356c0 .341.23.62.52.62.28 0 .517-.279.517-.62s-.236-.622-.516-.622c-.29 0-.52.278-.52.622" class="I"/><path fill="#2888b0" d="M281.806 132.42c-2.924 4.307-5.591 9.93-10.383 12.385-.258.131-.14.568.149.549 2.27-.137 4.082-3.07 5.258-4.704 1.884-2.611 3.45-5.398 5.022-8.203z"/><g transform="matrix(.27009 0 0 .27009 -204.108 -239.349)"><g clip-path="url(#K)"><path fill="url(#A)" d="M1245.602 970.012h-7.48v-17.203h7.48Zm0 0"/></g><g clip-path="url(#L)"><path fill="url(#B)" d="M1259.012 970.012h-7.473v-17.203h7.473Zm0 0"/></g><g clip-path="url(#M)"><path fill="url(#C)" d="M1259.012 1003.422h-7.473v-17.215h7.473Zm0 0"/></g><g clip-path="url(#N)"><path fill="url(#D)" d="M1272.441 970.012h-7.48v-17.203h7.48Zm0 0"/></g><g clip-path="url(#O)"><path fill="url(#E)" d="M1245.602 1082.629h-7.48v-17.188h7.48Zm0 0"/></g><g clip-path="url(#P)"><path fill="url(#F)" d="M1259.012 1082.629h-7.473v-17.188h7.473Zm0 0"/></g><g clip-path="url(#Q)"><path fill="url(#G)" d="M1259.012 1108.18h-7.473v-17.192h7.473Zm0 0"/></g><g clip-path="url(#R)"><path fill="url(#H)" d="M1272.441 1082.629h-7.48v-17.188h7.48Zm0 0"/></g><g clip-path="url(#S)"><path fill="url(#I)" d="M1245.602 1003.422h-7.48v-17.215h7.48Zm0 0"/></g><g clip-path="url(#T)"><path fill="url(#J)" d="M1289.238 1039.43h-7.476v-17.192h7.476Zm0 0"/></g></g><path fill="#52993e" d="M144.932 145.354c9.005.55-4.23 11.76-8.629 12.184-2.026.195-3.952-2.807-5.753-3.808-2.285-1.267-15.301-1.585-8.039-6.26 2.035-1.376 10.963-1.267 14.16-2.37z"/><path d="M126.18 23.636c0 4.993 4.63 6.281 8.534 6.281 3.91 0 8.344-3.509 8.344-8.502s-2.918-11.104-4.25-14.532c-.877-2.255-11.224.2-11.167 5.902.062 6.282-1.461 9.145-1.461 10.85" class="D"/><path d="M120.667 64.153c.113-9.46 16.433-9.53 17.513 4.441s-7.379 38.315-7.379 38.315 2.585 1.907 3.349 9.267c.515 4.96.116 26.555.116 26.555h-4.197l-6.863-40.635c-1.464-10.842-2.666-27.539-2.539-37.943" class="J"/><path d="M134.338 137.94l-.097-7.898-.026-3.946-.027-1.968-.084-1.964-.095-1.961c-.008-.656-.094-1.278-.192-1.942l-.313-1.936-.423-1.896a54 54 0 0 0-1.135-3.744l-1.458-3.62-.078-.16.08-.155a198 198 0 0 0 2.27-4.49l2.224-4.513 1.08-2.273 1.054-2.282 1.915-4.66-1.647 4.767c-.252.808-.619 1.567-.946 2.34l-1.007 2.314c-1.313 3.1-2.812 6.11-4.322 9.119l.003-.317c.59 1.207 1.067 2.436 1.534 3.681a38.18 38.18 0 0 1 1.148 3.814c.17.643.276 1.308.416 1.962.152.656.211 1.307.297 1.96.087.64.17 1.32.174 1.982l.074 1.986c.02.658.071 1.323.042 1.982l-.038 1.978-.097 3.949z" class="C"/><path d="M134.456 146.42c-.381.706-2.372.574-4.068 1.017-1.837.48-2.201 1.129-3.99 1.525-1.132.251-2.415-.093-2.99-.594-.57-.491-.221-1.863 1.005-1.399 1.353-.294 2.371-1.96 3.217-2.62s2.439-1.618 2.439-1.618 4.227-1.996 4.197 0 1.026 2.147.19 3.69" class="J"/><path d="M132.62 142.324c.063.21.034.376.015.586l.205.157.148-.038.187-.19c.067-.345 0-.523-.286-.72-.135-.095-.311.058-.268.205m-8.273 4.975c.492.478 1.195.934 1.894.986l.043-.162c-.564-.367-1.262-.624-1.885-.894z" class="C"/><path d="M130.006 143.377l4.3-.521.025-4.46c-.105-.172-5.156.35-5.305.597s.98 4.384.98 4.384" class="E"/><path d="M134.617 147.868c-.391.606-2.055.64-4.207 1.31-1.448.454-3.264 1.63-4.422 1.716-2.177.162-3.741-1.483-3.741-1.989 0-.393.003-1.09.146-1.247 4.16.565 8.997-2.912 8.997-2.912l3.25.746c.199.748.441 1.658-.023 2.376" class="K"/><path d="M134.782 146.216c-.357 1.202-2.628.759-5.083 1.917l-2.717 1.278c-2.223.87-4.746-1.077-4.589-1.753.291-1.248 2.39-1.334 2.39-1.334l4.824-3.593s-.111-.724.092-1.123 1.677-.234 1.937-.044.126 1.032.826 1.111 1.507-.124 1.807-.443c.44.122.097 1.13.097 1.13.197.744.872 1.32.416 2.854" class="G"/><path d="m124.783 146.324 2.093 1.593 4.479-3.813-1.748-1.373z" class="H"/><g class="B"><path d="M130.31 106.899c-3.02-14.199-3.3-27.899-1.546-39.58 1.623-10.803 16.034-17.772 20.2-2.787 4.115 14.8-7.539 40.857-7.539 40.857s2.139 3.789 3.22 9.644c.953 5.165.23 27.974.23 27.974l-4.29.24s-8.024-25.742-10.277-36.348"/><path d="M145.682 145.83c0 1.97-2.117 1.988-3.494 3.892-1.089 1.503-1.831 2.824-2.275 3.103-1.393.888-4.832.289-4.832-.888 0-.736 1.35-.714 1.818-1.794 1.693-3.889 3.774-5.672 3.687-6.896s4.1-1.793 4.29-.24.806 1.426.806 2.823"/></g><path d="M143.528 142.712c.35.322.167.327-.098.552l.11.272c.347.035.62-.076.75-.416.135-.36-.403-.548-.627-.64zm-5.1 9.029c-.578-.267-1.216-.48-1.818-.69l-.021.04c.481.416 1.2.675 1.834.672z" class="C"/><path d="M140.668 143.869l4.297-.522.026-4.456c-.105-.175-5.374.492-5.52.737s1.197 4.24 1.197 4.24" class="E"/><path d="M146.504 147.655c-.23.93-1.97 2.263-3.595 4.062a17 17 0 0 1-2.96 2.602c-1.966 1.352-5.202-.393-5.351-1.068-.086-.383-.243-1.43-.14-1.62 4.178-.4 8.197-5.794 8.197-5.794l3.49-.391c.365.684.591 1.28.36 2.21" class="K"/><path d="M146.293 146.494c-.138.945-1.968 2.26-3.597 4.06a16.6 16.6 0 0 1-2.96 2.6c-1.966 1.356-5.287-.71-5.287-1.401 0-1.283 2.156-2.067 2.156-2.067l3.443-5.258s-.27-.997-.161-1.432c.102-.435 1.82-.364 2.114-.237s.527.899 1.224.815 1.44-.464 1.659-.843c.459.02.351 1.078.351 1.078.364.681 1.29 1.097 1.058 2.685" class="G"/><path d="m136.605 149.686 2.688.722 3.235-4.962-2.48-1.018z" class="H"/><path fill="#27282a" d="M127.773 143.467c5.583 3.173 7.868-.509 7.868-.509l5.213-48.473c.969-6.879 3.538-26.015 2.53-28.89-1.23-3.513-22.971-4.868-23.605-.555s-.057 22.158 1.392 37.056c1.397 14.342 6.33 40.72 6.602 41.37"/><path fill="#171616" d="M120.254 74.069c.597.92 1.334 1.733 2.098 2.517 1.456 1.49 3.28 3.325 5.267 4.062l.11-.192c-1.708-1.399-3.543-2.547-5.136-4.11l-2.282-2.32z"/><path fill="#363437" d="M138.687 143.72c4.441 2.92 7.996-.632 7.996-.632s1.9-24.241-4.063-38.833c2.455-6.529 10.152-27.54 6.852-39.977-.954-3.598-20.707 3.042-20.707 3.042s-3.023 18.28.277 37.569c2.123 12.422 9.453 38.005 9.645 38.83"/><g fill="#a357b2"><path d="M127.73 27.215c.403 9.484-3.96 15.33-5.674 17.298-1.986 2.276-5.395-6.347-5.395-6.347 2.453-6.683 2.48-6.656 3.922-10.096 1.86-4.443 4.738-4.738 4.738-4.738s2.36 2.689 2.409 3.883"/><path d="M149.472 64.278c.197 5.866-30.304 4.74-30.207 1.236.232-8.41 4.108-20.312 4.108-20.312s-3.694-18.294.162-20.955c3.05-2.103 6.477-2.005 6.477-2.005l7.32-.006s4.062.165 6.939 2.28c2.19 1.611.883 22.344.883 22.344s4.065 9.804 4.318 17.418"/></g><path d="M128.105 18.524c.921.615 2.164.475 2.164.475l-.337 3.243s-1.17 4.093 1.479 4.093c3.211 0 5.796-4.099 5.796-4.099-.855-5.168-1.01-9.183-1.01-9.183s.492-1.075.316-3.516c-.224-3.074-5.59-4.996-5.59-4.996l-3.612 1.417s-.82 1.833-1.029 3.404c-.413 3.109-.16 7.836 1.823 9.162" class="B"/><path d="M132.003 1.8c-5.061-.246-6.555 1.989-6.769 3.628-.289 2.232.984 4.22.984 4.22s.38-1.65.92-2.983c1.624 3.222 6.132 2.277 7.474 3.902.9 1.09.457 1.432.488 2.812.02.882 1.105 1.174 1.368.408.194-.563 2.782-2.715 2.565-5.72-.254-3.526-4.407-6.14-7.03-6.267" class="D"/><path d="M133.874 17.065c-1.896 1.713-3.605 1.934-3.605 1.934l-.17 1.636c2.398-.366 3.024-1.254 3.775-3.57" class="F"/><path d="M135.1 13.38c-.831-.143.225 1.047.852 1.144.448.07.859-.21 1.028-.855.19-.709.227-1.716-.578-1.758-.788-.043-.731 1.565-1.302 1.468" class="B"/><path d="M136.065 13.688s-.056-.106-.075-.281a3 3 0 0 1 .03-.635c.086-.212.177-.47.423-.534l.21.113.047.067-.23-.046c-.1.04-.175.26-.205.463-.073.198-.12.415-.14.576l-.06.277" class="C"/><path fill="#a357b2" d="M140.964 43.008c-4.23-3.637-3.338-12.818-3.216-15.402.224-4.756 5.083-5.12 7.36-2.242 2.785 3.52 3.221 10.152.764 14.007s-4.846 3.665-4.908 3.637"/><path fill="#854aaa" d="M139.911 24.02c-2.023 2.282-2.636 5.557-3.152 8.463-.554 3.132 1.312 5.267 2.488 8.046l.159-.068c-.973-3.09-2.941-5.18-2.304-8.605.497-2.66 1.594-5.416 2.896-7.769zm-16.595 19.968l-1.653-4.482c-.888-2.6.041-4.623 1.135-6.905 1.002-2.088 2.352-4.576 2.077-6.942-.02-.15-.26-.216-.29-.04-.545 3.261-2.103 6.108-3.272 9.165-1.18 3.084.645 6.485 1.901 9.248zm3.771-3.416c.66-.157 1.294-.22 1.964-.084.493.1 1.023.668 1.52.472l.152-.199.01-.127c.014-.14-.086-.262-.192-.335-.985-.694-2.592-.707-3.573-.01-.14.1-.059.326.12.283"/><path d="M129.186 10.952c.178.328.25.715.254 1.094a2.5 2.5 0 0 1-.211 1.113l-.016.043-.033.015c-.25.113-.505.305-.491.575.016.257.213.524.488.646-.277-.073-.596-.282-.632-.636-.035-.371.282-.626.546-.766l-.051.057c.087-.35.165-.697.205-1.054.027-.36-.01-.712-.06-1.087" class="C"/><path d="M126.128 11.027c.062-.004.213-.208.643-.263.451-.06.997.095 1.061.064.273-.132.294-.484.027-.638-.045-.027-.5-.057-.972.028s-.764.287-.81.346c-.138.187-.046.467.051.463m6.372 0c-.06-.004-.211-.208-.643-.263-.448-.06-.994.095-1.06.064-.271-.132-.294-.484-.026-.638.046-.027.5-.057.972.028s.765.287.808.346c.143.187.051.467-.051.463" class="D"/><path d="M130.614 15.133c-1.007 1.46-2.751.952-3.227.063z" class="E"/><path fill="#f57687" d="M126.218 13.444c0 .297.386.54.866.54s.867-.243.867-.54-.389-.54-.867-.54-.866.242-.866.54m4.164 0c0 .297.39.54.867.54s.868-.243.868-.54-.387-.54-.868-.54-.867.242-.867.54"/><path d="M122.309 42.228c-.535-1.708-6.593-7.644-6.593-7.644s.502-1.212.128-2.284c-.301-.866-2.033-1.86-2.033-1.86s-.844-2.075-1.773-2.244c-.424-.077-.635 1.142-.338 2.072.502 1.588 1.118 1.985 1.226 2.328.548 1.778 1.346 8.402 3.673 11.025 2.332 2.628 6.726 1.842 5.71-1.393" class="B"/><path fill="#3d4d57" d="m119.244 34.824-3.745.889-4.907-7.932-.022-.812h4.997l3.855 7.088z"/><path fill="#e8f8fe" d="m118.99 33.914-3.385.827-4.548-7.468 4.4-.063z"/><path fill="#c2ebfb" d="M113.655 28.35c.348-.658 1.157-.564 1.624-.085.399.408.702 1.036.719 1.611.02.672-.69 1.097-1.278.815l-.081-.047c-.262-.09-.473-.285-.66-.505-.407-.483-.642-1.19-.324-1.79m1.256 3.464c.22-.197.57-.206.851-.26l1.12-.218.01.02c-.354.183-.665.353-1.052.482-.275.092-.65.214-.917.063zm.386.831c.225-.175.535-.216.8-.318l1.09-.4.056.092c-.206.208-.482.303-.748.403-.187.07-.385.108-.573.156s-.343.178-.535.222zm2.126-.086c.481 0 .481.746 0 .746s-.48-.746 0-.746m-.824.524c.338 0 .338.525 0 .525s-.338-.525 0-.525m-.696.233c.321 0 .321.5 0 .5s-.324-.5 0-.5"/><g class="B"><path d="M133.013 39.286c-2.588-3.878-.006-16.399.591-19.246l2.372-.524c.289 2.947 1.772 6.29 2.549 15.165l2.693 8.414s-5.062.91-8.205-3.809"/><path d="M135.654 20.031c1.44-1.155 1.345-2.836 2.296-4.01.14-.175-.381-.793-.889-.38-.756.615-.607 1.49-.607 1.49s.589-1.2.038-2.537c-.443-1.08-2.159-2.063-2.474-1.429s-.11 2.944-.16 3.3c-1.204 2.697-.065 4.506-.065 4.506z"/></g><path d="M127.395 11.58c0 .258-.173.466-.391.466-.211 0-.387-.208-.387-.465s.176-.468.387-.468c.218 0 .391.21.391.468m3.474.043c0 .255.172.464.39.464.212 0 .39-.209.39-.464s-.178-.469-.39-.469c-.218 0-.39.21-.39.469" class="I"/><path d="M137.95 16.021l-.108.19c-.062.129-.197.297-.289.547l-.353.891c-.135.346-.268.748-.503 1.152-.108.199-.27.392-.427.584-.197.193-.245.347-.178.637.043.526.194 1.05.291 1.608l.76 3.497 1.193 6.605.214 2.2.035.838-.078-.834c-.024-.532-.166-1.283-.306-2.185l-1.304-6.572-.7-3.516-.27-1.639c.006-.137-.065-.242 0-.402.06-.15.15-.236.23-.333.157-.188.308-.356.423-.56.227-.382.381-.776.535-1.114l.4-.877c.106-.247.25-.408.317-.532zm-5.953 14.89l.511-5.308q.17-1.323.391-2.64l.565-2.62.127-.067.062.056.173.337-.043.144-.144-.044a4 4 0 0 1-.378-1.014 4.7 4.7 0 0 1-.057-1.076c.063-.715.265-1.401.514-2.059l-.005.035c.002-.986-.25-2.09.275-3.058.132-.228.335-.449.615-.512.279-.069.554.041.77.181.44.292.743.722 1.024 1.147-.303-.408-.634-.817-1.072-1.07-.213-.123-.464-.193-.691-.13-.228.055-.403.244-.52.455-.469.909-.215 1.96-.193 2.987l-.009.036c-.23.653-.413 1.325-.457 2.007a4.98 4.98 0 0 0 .039 1.014q.1.499.332.951l-.189.102-.168-.34.19-.013c-.26.835-.43 1.71-.587 2.582q-.236 1.31-.422 2.628l-.653 5.289" class="C"/><path fill="#854aaa" d="M146.785 37.755l-2.171 2.96c-.883 1.064-1.937 1.564-3.169 2.101-.205.09-.1.424.111.416 2.625-.129 4.216-3.475 5.264-5.458z"/><path fill="#dd43a9" d="M113.811 19.536c.684 0 1.268.41 1.524.996a1.661 1.661 0 0 1 3.185.667c0 1.732-2.555 3.621-3.185 3.621s-3.184-1.995-3.184-3.62c0-.92.743-1.664 1.66-1.664"/></svg>